<?xml version="1.0" encoding="UTF-8" standalone="no"?>
<svg
   viewBox="0 0 24 24"
   version="1.1"
   id="svg436"
   sodipodi:docname="file-sign.svg"
   inkscape:version="1.2.2 (b0a8486541, 2022-12-01)"
   xmlns:inkscape="http://www.inkscape.org/namespaces/inkscape"
   xmlns:sodipodi="http://sodipodi.sourceforge.net/DTD/sodipodi-0.dtd"
   xmlns="http://www.w3.org/2000/svg"
   xmlns:svg="http://www.w3.org/2000/svg">
  <defs
     id="defs440" />
  <sodipodi:namedview
     id="namedview438"
     pagecolor="#ffffff"
     bordercolor="#000000"
     borderopacity="0.25"
     inkscape:showpageshadow="2"
     inkscape:pageopacity="0.0"
     inkscape:pagecheckerboard="0"
     inkscape:deskcolor="#d1d1d1"
     showgrid="false"
     inkscape:zoom="42.791667"
     inkscape:cx="12"
     inkscape:cy="11.988315"
     inkscape:window-width="2560"
     inkscape:window-height="1371"
     inkscape:window-x="0"
     inkscape:window-y="32"
     inkscape:window-maximized="1"
     inkscape:current-layer="svg436" />
  <path
     d="M19.7 12.9L14 18.6H11.7V16.3L17.4 10.6L19.7 12.9M23.1 12.1C23.1 12.4 22.8 12.7 22.5 13L20 15.5L19.1 14.6L21.7 12L21.1 11.4L20.4 12.1L18.1 9.8L20.3 7.7C20.5 7.5 20.9 7.5 21.2 7.7L22.6 9.1C22.8 9.3 22.8 9.7 22.6 10C22.4 10.2 22.2 10.4 22.2 10.6C22.2 10.8 22.4 11 22.6 11.2C22.9 11.5 23.2 11.8 23.1 12.1M3 20V4H10V9H15V10.5L17 8.5V8L11 2H3C1.9 2 1 2.9 1 4V20C1 21.1 1.9 22 3 22H15C16.1 22 17 21.1 17 20H3M11 17.1C10.8 17.1 10.6 17.2 10.5 17.2L10 15H8.5L6.4 16.7L7 14H5.5L4.5 19H6L8.9 16.4L9.5 18.7H10.5L11 18.6V17.1Z"
     id="path434"
     style="fill:#666666" />
</svg>
