<?xml version="1.0" encoding="UTF-8" standalone="no"?>
<svg
   viewBox="0 0 24 24"
   version="1.1"
   id="svg1"
   sodipodi:docname="rocket.svg"
   inkscape:version="1.4 (e7c3feb100, 2024-10-09)"
   xmlns:inkscape="http://www.inkscape.org/namespaces/inkscape"
   xmlns:sodipodi="http://sodipodi.sourceforge.net/DTD/sodipodi-0.dtd"
   xmlns="http://www.w3.org/2000/svg"
   xmlns:svg="http://www.w3.org/2000/svg">
  <defs
     id="defs1" />
  <sodipodi:namedview
     id="namedview1"
     pagecolor="#ffffff"
     bordercolor="#000000"
     borderopacity="0.25"
     inkscape:showpageshadow="2"
     inkscape:pageopacity="0.0"
     inkscape:pagecheckerboard="0"
     inkscape:deskcolor="#d1d1d1"
     inkscape:zoom="41.916667"
     inkscape:cx="12"
     inkscape:cy="12"
     inkscape:window-width="2560"
     inkscape:window-height="1371"
     inkscape:window-x="0"
     inkscape:window-y="32"
     inkscape:window-maximized="1"
     inkscape:current-layer="svg1" />
  <path
     d="M13.13 22.19L11.5 18.36C13.07 17.78 14.54 17 15.9 16.09L13.13 22.19M5.64 12.5L1.81 10.87L7.91 8.1C7 9.46 6.22 10.93 5.64 12.5M21.61 2.39C21.61 2.39 16.66 .269 11 5.93C8.81 8.12 7.5 10.53 6.65 12.64C6.37 13.39 6.56 14.21 7.11 14.77L9.24 16.89C9.79 17.45 10.61 17.63 11.36 17.35C13.5 16.53 15.88 15.19 18.07 13C23.73 7.34 21.61 2.39 21.61 2.39M14.54 9.46C13.76 8.68 13.76 7.41 14.54 6.63S16.59 5.85 17.37 6.63C18.14 7.41 18.15 8.68 17.37 9.46C16.59 10.24 15.32 10.24 14.54 9.46M8.88 16.53L7.47 15.12L8.88 16.53M6.24 22L9.88 18.36C9.54 18.27 9.21 18.12 8.91 17.91L4.83 22H6.24M2 22H3.41L8.18 17.24L6.76 15.83L2 20.59V22M2 19.17L6.09 15.09C5.88 14.79 5.73 14.47 5.64 14.12L2 17.76V19.17Z"
     id="path1"
     style="fill:#666666" />
</svg>
