<?xml version="1.0" encoding="UTF-8" standalone="no"?>
<svg
   viewBox="0 0 24 24"
   version="1.1"
   id="svg4"
   sodipodi:docname="gamepad-square.svg"
   inkscape:version="1.2.2 (b0a8486541, 2022-12-01)"
   xmlns:inkscape="http://www.inkscape.org/namespaces/inkscape"
   xmlns:sodipodi="http://sodipodi.sourceforge.net/DTD/sodipodi-0.dtd"
   xmlns="http://www.w3.org/2000/svg"
   xmlns:svg="http://www.w3.org/2000/svg">
  <defs
     id="defs8" />
  <sodipodi:namedview
     id="namedview6"
     pagecolor="#ffffff"
     bordercolor="#000000"
     borderopacity="0.25"
     inkscape:showpageshadow="2"
     inkscape:pageopacity="0.0"
     inkscape:pagecheckerboard="0"
     inkscape:deskcolor="#d1d1d1"
     showgrid="false"
     inkscape:zoom="42.791667"
     inkscape:cx="12"
     inkscape:cy="11.988315"
     inkscape:window-width="2560"
     inkscape:window-height="1371"
     inkscape:window-x="0"
     inkscape:window-y="32"
     inkscape:window-maximized="1"
     inkscape:current-layer="svg4" />
  <path
     d="M21,6H3A2,2 0 0,0 1,8V16A2,2 0 0,0 3,18H21A2,2 0 0,0 23,16V8A2,2 0 0,0 21,6M11,13H8V16H6V13H3V11H6V8H8V11H11M15.5,15A1.5,1.5 0 0,1 14,13.5A1.5,1.5 0 0,1 15.5,12A1.5,1.5 0 0,1 17,13.5A1.5,1.5 0 0,1 15.5,15M19.5,12A1.5,1.5 0 0,1 18,10.5A1.5,1.5 0 0,1 19.5,9A1.5,1.5 0 0,1 21,10.5A1.5,1.5 0 0,1 19.5,12Z"
     id="path2"
     style="fill:#666666" />
</svg>
